<svg xmlns="http://www.w3.org/2000/svg" width="250" height="29.375" viewBox="0 0 400 47">
  <defs>
    <style>
      .cls-1, .cls-2 {
        fill-rule: evenodd;
      }

      .cls-2 {
        fill: #4682b4;
      }
    </style>
  </defs>
  <path id="Vickon" class="cls-1" d="M21.206,40.538h5.36L39.449,8.68H34.662A1.911,1.911,0,0,0,33.4,9.1a2.3,2.3,0,0,0-.706.925L25.221,29.456a27.313,27.313,0,0,0-1.257,4.472q-0.309-1.256-.651-2.39T22.6,29.456L15.1,10.024a2.3,2.3,0,0,0-.728-0.969A2,2,0,0,0,13.11,8.68H8.324Zm29.558-22.6v22.6h5.449v-22.6H50.764ZM56.742,9.98a3.559,3.559,0,0,0-.761-1.1,3.646,3.646,0,0,0-1.114-.738A3.425,3.425,0,0,0,53.5,7.865a3.29,3.29,0,0,0-1.334.275,3.538,3.538,0,0,0-1.092.738,3.494,3.494,0,0,0-.739,1.1,3.406,3.406,0,0,0-.276,1.366,3.2,3.2,0,0,0,.276,1.322,3.512,3.512,0,0,0,1.831,1.818,3.284,3.284,0,0,0,1.334.275,3.417,3.417,0,0,0,1.368-.275,3.6,3.6,0,0,0,1.875-1.818,3.1,3.1,0,0,0,.287-1.322A3.3,3.3,0,0,0,56.742,9.98Zm30.9,10.751a10.865,10.865,0,0,0-3.43-2.335,11.247,11.247,0,0,0-4.445-.815,11.871,11.871,0,0,0-4.721.881A9.661,9.661,0,0,0,71.61,20.9,10.451,10.451,0,0,0,69.5,24.576a14.359,14.359,0,0,0-.717,4.616,14.15,14.15,0,0,0,.805,4.946,10.978,10.978,0,0,0,2.184,3.668,9.21,9.21,0,0,0,3.232,2.28,10.053,10.053,0,0,0,3.948.782,16.721,16.721,0,0,0,2.4-.176,11.175,11.175,0,0,0,2.349-.606A10.614,10.614,0,0,0,85.9,38.94a9.848,9.848,0,0,0,1.963-1.773L86.3,35.184a1.107,1.107,0,0,0-.993-0.507,1.449,1.449,0,0,0-.916.319q-0.408.32-.959,0.7a6.636,6.636,0,0,1-1.357.7,5.8,5.8,0,0,1-2.107.32,5.352,5.352,0,0,1-2.338-.5,4.791,4.791,0,0,1-1.765-1.454,6.87,6.87,0,0,1-1.114-2.368,12.2,12.2,0,0,1-.386-3.217,12.581,12.581,0,0,1,.353-3.117,6.693,6.693,0,0,1,1.07-2.346,4.765,4.765,0,0,1,1.8-1.487,5.762,5.762,0,0,1,2.515-.518,6.043,6.043,0,0,1,1.886.253,7.113,7.113,0,0,1,1.313.573q0.551,0.32.948,0.573a1.5,1.5,0,0,0,.816.253,1.1,1.1,0,0,0,.673-0.176,2.71,2.71,0,0,0,.474-0.485ZM99.359,7.8V40.538h5.449V30.183h1.235a2.461,2.461,0,0,1,.993.154A1.765,1.765,0,0,1,107.7,31l5.757,8.57a2.115,2.115,0,0,0,.794.749,2.4,2.4,0,0,0,1.081.22h4.919l-7.544-10.972q-0.354-.507-0.706-0.947a4.055,4.055,0,0,0-.816-0.771,5.01,5.01,0,0,0,.86-0.672,9.56,9.56,0,0,0,.772-0.848l7.037-8.394h-4.985a2.115,2.115,0,0,0-1.1.253,3.259,3.259,0,0,0-.794.694l-5.625,6.94a2.231,2.231,0,0,1-.662.573,1.957,1.957,0,0,1-.86.154h-1.015V7.8H99.359Zm35.934,10.6a10,10,0,0,0-3.54,2.313,10.26,10.26,0,0,0-2.272,3.657,13.719,13.719,0,0,0-.806,4.825,13.784,13.784,0,0,0,.806,4.847,10.481,10.481,0,0,0,2.272,3.679,9.854,9.854,0,0,0,3.54,2.335,13.414,13.414,0,0,0,9.21,0,9.775,9.775,0,0,0,3.518-2.335,10.45,10.45,0,0,0,2.25-3.679,13.972,13.972,0,0,0,.794-4.847,13.907,13.907,0,0,0-.794-4.825,10.23,10.23,0,0,0-2.25-3.657A9.922,9.922,0,0,0,144.5,18.4,13.414,13.414,0,0,0,135.293,18.4Zm0.375,16.38a9.438,9.438,0,0,1-1.368-5.541,9.547,9.547,0,0,1,1.368-5.563,4.84,4.84,0,0,1,4.235-1.928,4.775,4.775,0,0,1,4.181,1.917,9.6,9.6,0,0,1,1.356,5.574,9.494,9.494,0,0,1-1.356,5.552,4.8,4.8,0,0,1-4.181,1.895A4.861,4.861,0,0,1,135.668,34.776Zm33.044,5.761V24.19a9.5,9.5,0,0,1,2.338-1.741,5.683,5.683,0,0,1,2.647-.639,3.56,3.56,0,0,1,2.879,1.135,4.823,4.823,0,0,1,.96,3.206V40.538h5.448V26.151a11.5,11.5,0,0,0-.5-3.47,7.746,7.746,0,0,0-1.456-2.71,6.5,6.5,0,0,0-2.393-1.762,8.129,8.129,0,0,0-3.287-.628,9.582,9.582,0,0,0-2.118.22,8.225,8.225,0,0,0-1.82.639,10.088,10.088,0,0,0-1.61.991,12.476,12.476,0,0,0-1.445,1.278l-0.375-1.785a1.338,1.338,0,0,0-1.39-.991h-3.33v22.6h5.448Z"/>
  <path id="House" class="cls-2" d="M262.485,8.68h-5.978v13.7H241.551V8.68h-5.977V40.538h5.977V26.614h14.956V40.538h5.978V8.68ZM281.61,18.4a10.012,10.012,0,0,0-3.54,2.313,10.274,10.274,0,0,0-2.272,3.657,13.72,13.72,0,0,0-.805,4.825,13.785,13.785,0,0,0,.805,4.847,10.5,10.5,0,0,0,2.272,3.679,9.862,9.862,0,0,0,3.54,2.335,13.414,13.414,0,0,0,9.21,0,9.766,9.766,0,0,0,3.518-2.335,10.45,10.45,0,0,0,2.25-3.679,13.949,13.949,0,0,0,.794-4.847,13.883,13.883,0,0,0-.794-4.825,10.23,10.23,0,0,0-2.25-3.657A9.913,9.913,0,0,0,290.82,18.4,13.414,13.414,0,0,0,281.61,18.4Zm0.375,16.38a9.438,9.438,0,0,1-1.367-5.541,9.547,9.547,0,0,1,1.367-5.563,4.84,4.84,0,0,1,4.235-1.928,4.775,4.775,0,0,1,4.181,1.917,9.6,9.6,0,0,1,1.356,5.574,9.494,9.494,0,0,1-1.356,5.552,4.8,4.8,0,0,1-4.181,1.895A4.861,4.861,0,0,1,281.985,34.776Zm27.132-16.843V32.3a11.5,11.5,0,0,0,.5,3.47,7.746,7.746,0,0,0,1.467,2.721,6.553,6.553,0,0,0,2.393,1.773,8.041,8.041,0,0,0,3.276.628,9.161,9.161,0,0,0,2.106-.231,8.949,8.949,0,0,0,1.831-.639,8.777,8.777,0,0,0,1.6-.991,15.62,15.62,0,0,0,1.456-1.289l0.375,1.807a1.339,1.339,0,0,0,1.39.991h3.331v-22.6h-5.449V34.281a9.233,9.233,0,0,1-2.338,1.73,5.762,5.762,0,0,1-2.647.628,3.56,3.56,0,0,1-2.879-1.135,4.827,4.827,0,0,1-.959-3.206V17.933h-5.449Zm48.155,2.446a9.618,9.618,0,0,0-3.2-2.027,11.326,11.326,0,0,0-4.257-.771,11.129,11.129,0,0,0-3.695.562,8.047,8.047,0,0,0-2.669,1.5,6.2,6.2,0,0,0-1.622,2.192,6.514,6.514,0,0,0-.551,2.644,6.223,6.223,0,0,0,.474,2.556,5.42,5.42,0,0,0,1.258,1.785,6.97,6.97,0,0,0,1.786,1.2,18.867,18.867,0,0,0,2.052.826q1.047,0.353,2.051.65a12.183,12.183,0,0,1,1.787.672,4.153,4.153,0,0,1,1.257.881,1.828,1.828,0,0,1,.475,1.3,2.6,2.6,0,0,1-.21,1.025,2.273,2.273,0,0,1-.662.87,3.51,3.51,0,0,1-1.147.606,5.3,5.3,0,0,1-1.665.231,6.172,6.172,0,0,1-2.041-.286,9.325,9.325,0,0,1-1.4-.617q-0.6-.33-1.048-0.617a1.769,1.769,0,0,0-.96-0.286,1.61,1.61,0,0,0-.838.2,1.776,1.776,0,0,0-.573.573l-1.258,2.071a9.191,9.191,0,0,0,1.533,1.1,11.853,11.853,0,0,0,1.9.881,13.493,13.493,0,0,0,2.14.584,13.206,13.206,0,0,0,6.154-.352,8.17,8.17,0,0,0,2.835-1.564,6.606,6.606,0,0,0,1.743-2.379,7.493,7.493,0,0,0,.6-3.007,5.274,5.274,0,0,0-.474-2.335,5.335,5.335,0,0,0-1.257-1.663,7.1,7.1,0,0,0-1.776-1.146q-0.993-.451-2.029-0.8t-2.03-.65a12.283,12.283,0,0,1-1.776-.672,4.257,4.257,0,0,1-1.257-.87,1.7,1.7,0,0,1-.474-1.223,2.119,2.119,0,0,1,.926-1.785,4.2,4.2,0,0,1,2.537-.683,6.518,6.518,0,0,1,1.8.22,9.636,9.636,0,0,1,1.356.5q0.6,0.276,1.048.5a1.946,1.946,0,0,0,.849.22,1.2,1.2,0,0,0,.618-0.143,1.448,1.448,0,0,0,.463-0.5Zm17.349-1.917a10.117,10.117,0,0,0-3.419,2.39,10.461,10.461,0,0,0-2.151,3.547,12.5,12.5,0,0,0-.75,4.351,14.659,14.659,0,0,0,.86,5.232,10.855,10.855,0,0,0,2.36,3.789,9.824,9.824,0,0,0,3.53,2.313,12.11,12.11,0,0,0,4.39.782,17.884,17.884,0,0,0,2.459-.176,12.861,12.861,0,0,0,2.493-.606,11.382,11.382,0,0,0,2.349-1.146,9.071,9.071,0,0,0,2.029-1.773l-1.588-1.983a1.269,1.269,0,0,0-.419-0.375,1.181,1.181,0,0,0-.573-0.132,2.11,2.11,0,0,0-1.048.308q-0.541.309-1.258,0.683a10.664,10.664,0,0,1-1.676.683,7.494,7.494,0,0,1-2.283.308,5.848,5.848,0,0,1-4.324-1.63,7.78,7.78,0,0,1-1.875-5.111h13.986a1.644,1.644,0,0,0,.617-0.1,0.8,0.8,0,0,0,.386-0.33,1.633,1.633,0,0,0,.2-0.639,8,8,0,0,0,.055-1.024,12.14,12.14,0,0,0-.728-4.351,9.116,9.116,0,0,0-2.029-3.217,8.63,8.63,0,0,0-3.1-1.994,11,11,0,0,0-3.937-.683A11.276,11.276,0,0,0,374.621,18.462Zm6.783,3.426A4.179,4.179,0,0,1,382.9,23a4.6,4.6,0,0,1,.882,1.641,6.78,6.78,0,0,1,.287,1.994H373.838a6.626,6.626,0,0,1,1.72-3.811,5.043,5.043,0,0,1,3.728-1.344A5.117,5.117,0,0,1,381.4,21.888Z"/>
  <path class="cls-2" d="M224.7,39.837a0.649,0.649,0,0,1-.57.705H194.692a0.649,0.649,0,0,1-.57-0.705v-18.8a2.814,2.814,0,0,1,.57-1.412s14.05-17.314,14.317-17.645a0.5,0.5,0,0,1,.81-0.01c0.174,0.215,14.224,17.655,14.224,17.655a3.187,3.187,0,0,1,.658,1.412v18.8Z"/>
</svg>
